<svg xmlns="http://www.w3.org/2000/svg" version="1.1" xmlns:xlink="http://www.w3.org/1999/xlink" xmlns:svgjs="http://svgjs.dev/svgjs" width="1000" height="623" viewBox="0 0 1000 623"><g transform="matrix(1,0,0,1,-0.6060606060606233,0.2522267206477409)"><svg viewBox="0 0 396 247" data-background-color="#096a2e" preserveAspectRatio="xMidYMid meet" height="623" width="1000" xmlns="http://www.w3.org/2000/svg" xmlns:xlink="http://www.w3.org/1999/xlink"><g id="tight-bounds" transform="matrix(1,0,0,1,0.2400000000000091,-0.09999999999999432)"><svg viewBox="0 0 395.52 247.2" height="247.2" width="395.52"><g><svg></svg></g><g><svg viewBox="0 0 395.52 247.2" height="247.2" width="395.52"><g transform="matrix(1,0,0,1,75.54432,98.6928137621077)"><svg viewBox="0 0 244.43135999999998 49.81437247578458" height="49.81437247578458" width="244.43135999999998"><g><svg viewBox="0 0 244.43135999999998 49.81437247578458" height="49.81437247578458" width="244.43135999999998"><g><svg viewBox="0 0 244.43135999999998 49.81437247578458" height="49.81437247578458" width="244.43135999999998"><g><svg viewBox="0 0 244.43135999999998 49.81437247578458" height="49.81437247578458" width="244.43135999999998"><g id="textblocktransform"><svg viewBox="0 0 244.43135999999998 49.81437247578458" height="49.81437247578458" width="244.43135999999998" id="textblock"><g><svg viewBox="0 0 244.43135999999998 49.81437247578458" height="49.81437247578458" width="244.43135999999998"><g transform="matrix(1,0,0,1,0,0)"><svg width="244.43135999999998" viewBox="3.1500000953674316 -38.15999984741211 189.02000427246094 38.529998779296875" height="49.81437247578458" data-palette-color="#c9efc7"><path d="M9.25-36.38L9.25-2.73Q9.25-0.63 9.35 0L9.35 0 3.15 0 3.15-36.38 9.25-36.38ZM20.82-28.83L15.33-32.79Q17.28-35.84 19.41-38.16L19.41-38.16 24.66-34.03Q23.61-32.74 22.7-31.49L22.7-31.49Q22.7-31.49 20.82-28.83L20.82-28.83ZM21.75-25.51L21.75-2.73Q21.75-0.63 21.85 0L21.85 0 15.65 0 15.65-25.51 21.75-25.51ZM48.02-8.33L48.58-2.37Q45.84 0.37 40.01 0.37L40.01 0.37Q34.35 0.37 30.76-3.08L30.76-3.08Q27.12-6.57 27.12-12.35L27.12-12.35Q27.12-18.24 30.71-22.02L30.71-22.02Q34.52-26 40.89-26L40.89-26Q45.41-26 48.46-24.02L48.46-24.02 47.48-17.77 47.31-17.8Q46.14-19.21 44.84-19.65L44.84-19.65Q42.74-20.39 40.64-20.39 38.54-20.39 37.35-19.85 36.15-19.31 35.3-18.36L35.3-18.36Q33.59-16.41 33.59-13.18L33.59-13.18Q33.59-7.47 37.54-5.71L37.54-5.71Q38.91-5.13 40.44-5.13 41.96-5.13 43.1-5.4 44.23-5.66 45.16-6.13L45.16-6.13Q47.14-7.1 47.85-8.4L47.85-8.4 48.02-8.33ZM60.3-16.97L60.3-2.73Q60.3-0.63 60.39 0L60.39 0 54.31 0 54.31-34.91 60.3-34.91 60.3-23.61Q63.44-26 66.79-26L66.79-26Q70.89-26 73.38-23.29L73.38-23.29Q75.82-20.58 75.82-16.11L75.82-16.11 75.82-6.4Q75.82-2.27 75.94-1.44 76.07-0.61 76.27-0.37 76.48-0.12 76.63 0.07L76.63 0.07 76.58 0.17Q74.6 0 73.7 0L73.7 0 71.97 0Q71.16 0 69.84 0.07L69.84 0.07 69.84-14.06Q69.84-17.43 68.35-19.04L68.35-19.04Q67.23-20.26 65.3-20.26L65.3-20.26Q62.44-20.26 60.3-16.97L60.3-16.97ZM80.95-12.62L80.95-12.62Q80.95-15.31 81.86-17.76 82.78-20.21 84.49-22.05L84.49-22.05Q88.22-26 94.18-26L94.18-26Q100.11-26 103.6-22.27L103.6-22.27Q106.95-18.7 106.95-13.01L106.95-13.01Q106.95-7.32 103.51-3.59L103.51-3.59Q99.87 0.37 93.86 0.37L93.86 0.37Q87.66 0.37 84.15-3.52L84.15-3.52Q80.95-7.06 80.95-12.62ZM86.88-12.77L86.88-12.77Q86.88-11.23 87.39-9.79 87.91-8.35 88.86-7.32L88.86-7.32Q90.88-5.1 94.18-5.1L94.18-5.1Q97.23-5.1 98.99-7.28L98.99-7.28Q100.7-9.38 100.7-12.74L100.7-12.74Q100.7-16.16 98.94-18.26L98.94-18.26Q97.06-20.51 93.79-20.51L93.79-20.51Q90.47-20.51 88.59-18.12L88.59-18.12Q86.88-15.92 86.88-12.77ZM129.53-1.37L129.53-1.37Q126.43 0.37 123.33 0.37 120.23 0.37 117.91-0.61 115.59-1.59 113.95-3.3L113.95-3.3Q110.58-6.81 110.58-12.43L110.58-12.43Q110.58-18.24 114.49-22.09L114.49-22.09Q118.42-26 124.55-26L124.55-26Q126.43-26 128.23-25.51L128.23-25.51 128.23-36.38 134.22-36.38 134.22-10.28Q134.22-7.03 134.52-6.03 134.83-5.03 135.2-4.57 135.58-4.1 136.17-3.69L136.17-3.69 131.58 0.37Q130.31-0.32 129.53-1.37ZM124.47-5.25L124.47-5.25Q126.53-5.25 128.23-6.03L128.23-6.03 128.23-19.56Q126.53-20.26 124.52-20.26 122.52-20.26 121.09-19.73 119.67-19.19 118.64-18.24L118.64-18.24Q116.49-16.24 116.49-13.04L116.49-13.04Q116.49-9.55 118.44-7.47L118.44-7.47Q120.54-5.25 124.47-5.25ZM140.02-12.55L140.02-12.55Q140.02-15.41 141-17.85 141.98-20.29 143.76-22.12L143.76-22.12Q147.57-26 153.72-26L153.72-26Q158.92-26 162.07-22.56L162.07-22.56Q165.17-19.24 165.17-14.21L165.17-14.21Q165.17-12.28 164.88-11.57L164.88-11.57Q162.44-10.89 154.94-10.89L154.94-10.89 146.35-10.89Q146.98-8.28 149.3-6.82 151.62-5.37 155.33-5.37L155.33-5.37Q159.21-5.37 162-6.76L162-6.76Q162.73-7.13 163.1-7.45L163.1-7.45Q163.05-6.42 162.97-5.35L162.97-5.35 162.7-1.54Q160.85-0.27 156.7 0.22L156.7 0.22Q155.48 0.37 154.36 0.37L154.36 0.37Q148.15 0.37 144.1-3.25L144.1-3.25Q140.02-6.88 140.02-12.55ZM158.68-15.63L158.68-15.63Q157.68-20.87 152.96-20.87L152.96-20.87Q149.25-20.87 147.32-17.68L147.32-17.68Q146.74-16.7 146.42-15.53L146.42-15.53Q147.01-15.5 147.86-15.48L147.86-15.48 149.67-15.48Q150.57-15.45 151.4-15.45L151.4-15.45 152.79-15.45Q154.04-15.45 155.23-15.48L155.23-15.48 157.24-15.55Q158.04-15.58 158.68-15.63ZM177.06 0L166.78-25.51 173.69-25.51 179.65-8.72 185.41-25.51 192.17-25.51 182.09 0 177.06 0Z" opacity="1" transform="matrix(1,0,0,1,0,0)" fill="#ffffff" class="undefined-text-0" data-fill-palette-color="primary" id="text-0"></path></svg></g></svg></g></svg></g></svg></g></svg></g></svg></g></svg></g><path d="M191.031 92.693L191.031 32.133 8.097 32.133 8.097 215.067 191.031 215.067 191.031 154.507 186.538 154.507 186.538 210.575 12.589 210.575 12.589 36.625 186.538 36.625 186.538 92.693Z" fill="#ffffff" stroke="transparent" data-fill-palette-color="primary"></path></svg></g><defs></defs></svg><rect width="395.52" height="247.2" fill="none" stroke="none" visibility="hidden"></rect></g></svg></g></svg>